<svg width="2400" height="240" viewBox="0 0 2400 240" xmlns="http://www.w3.org/2000/svg" role="img" aria-label="A long stylized strip representing levels">
  <defs>
    <linearGradient id="bg" x1="0" x2="1" y1="0" y2="0">
      <stop offset="0%" stop-color="#ff7e67" stop-opacity="0.2" />
      <stop offset="50%" stop-color="#7dd3fc" stop-opacity="0.15" />
      <stop offset="100%" stop-color="#c084fc" stop-opacity="0.2" />
    </linearGradient>
  </defs>
  <rect x="0" y="0" width="2400" height="240" rx="28" fill="#0f1025" stroke="rgba(255,255,255,0.08)" />
  <rect x="8" y="8" width="2384" height="224" rx="24" fill="url(#bg)" />
  <g fill="none" stroke="rgba(255,255,255,0.3)" stroke-dasharray="6 10" stroke-width="4">
    <path d="M60 190 C 250 80 360 200 560 120 S 860 80 1060 170 S 1460 160 1660 90 S 1960 80 2220 170" />
  </g>
  <g font-family="Inter, sans-serif" font-size="22" font-weight="700" fill="#e8e9f0">
    <text x="80" y="120">Niveau 1</text>
    <text x="320" y="70">Niveau 2</text>
    <text x="560" y="140">Niveau 3</text>
    <text x="820" y="90">Niveau 4</text>
    <text x="1080" y="150">Niveau 5</text>
    <text x="1340" y="70">Niveau 6</text>
    <text x="1600" y="140">Niveau 7</text>
    <text x="1860" y="90">Niveau 8</text>
    <text x="2120" y="150">Niveau 9</text>
  </g>
  <g fill="#0b0a1a" stroke="#ff7e67" stroke-width="3">
    <circle cx="120" cy="170" r="22" />
    <circle cx="360" cy="110" r="22" />
    <circle cx="600" cy="170" r="22" />
    <circle cx="860" cy="110" r="22" />
    <circle cx="1120" cy="170" r="22" />
    <circle cx="1380" cy="110" r="22" />
    <circle cx="1640" cy="170" r="22" />
    <circle cx="1900" cy="110" r="22" />
    <circle cx="2160" cy="170" r="22" />
  </g>
</svg>
